<svg width="84" height="33" viewBox="0 0 84 33" fill="none" xmlns="http://www.w3.org/2000/svg">
<path d="M21.3543 26.0347C21.3483 26.1119 21.3589 26.1894 21.3854 26.2626C21.412 26.3358 21.454 26.403 21.5089 26.4602C21.5637 26.5173 21.6302 26.5633 21.7044 26.5951C21.7785 26.627 21.8587 26.6441 21.9401 26.6455C23.8701 26.6455 28.0029 17.7279 28.0029 11.4329C28.0029 11.0512 28.1754 10.929 28.4684 10.929C29.4073 10.929 32.1036 12.456 32.1036 13.6623C32.1036 18.1746 25.3667 29.1001 21.0012 29.1001C18.9227 29.1001 16.752 27.6762 16.752 25.6644C16.752 23.435 17.7511 19.5565 17.7511 19.5565C16.0498 22.8738 11.5398 29.1001 9.14037 29.1001C7.05791 29.1001 4.97945 27.7602 4.97945 25.7827C4.97945 23.4159 9.02 16.5331 9.02 13.273C9.02627 13.2079 9.01796 13.1423 8.99562 13.0805C8.97327 13.0187 8.9374 12.9621 8.89038 12.9145C8.84336 12.8669 8.78624 12.8293 8.72282 12.8042C8.6594 12.7791 8.5911 12.7672 8.52245 12.7691C7.05791 12.7691 4.04054 15.1931 4.04054 17.7852C4.04054 19.5412 4.77482 19.9306 4.77482 20.236C4.77482 20.4039 4.62636 20.5147 4.30536 20.5147C2.901 20.5147 0 19.2053 0 16.8652C0 13.105 5.41681 10.429 9.54964 10.429C11.9812 10.429 13.3855 11.7383 13.3855 13.5478C13.3855 17.0904 9.46137 22.996 9.46137 25.9507C9.46137 26.2561 9.63791 26.4508 9.86261 26.4508C11.0904 26.4508 16.3347 19.0946 18.9428 12.4637C19.1755 11.8758 19.3802 11.5971 19.8215 11.5971C21.4024 11.5971 23.6293 13.4371 23.6293 14.8038C23.6093 16.8652 21.3543 23.0533 21.3543 26.0347Z" fill="#5B1EA8"/>
<path d="M33.881 28.4012C33.881 28.8211 33.7927 29.0692 33.3232 29.0692C31.9469 29.0692 30.045 28.7371 30.045 27.7331C30.045 25.729 32.9741 21.713 32.9741 19.4836C32.9741 19.2049 33.2349 19.0103 33.7766 19.0103C35.5341 19.0103 36.6174 20.2662 36.6174 21.045C36.6335 22.6597 33.881 26.2825 33.881 28.4012Z" fill="#5B1EA8"/>
<path d="M45.3927 22.9694C45.0677 22.9694 45.0115 22.8014 44.9233 22.412C44.7748 21.828 44.4257 21.1561 43.7516 21.1561C43.6648 21.1497 43.5775 21.1606 43.4953 21.1882C43.4132 21.2157 43.338 21.2593 43.2746 21.316C43.2111 21.3728 43.1608 21.4416 43.1269 21.5179C43.093 21.5942 43.0761 21.6764 43.0775 21.7593C43.0775 23.1794 46.4761 23.626 46.4761 25.7447C46.4761 27.6534 44.7748 29.0315 41.3482 29.0315C38.3629 29.0315 36.782 27.5541 36.782 26.8021C36.782 26.0501 38.5073 24.7674 39.5024 24.7674C39.9037 24.7674 40.0321 24.9354 40.0882 25.1492C40.2969 26.0959 40.971 26.7639 41.613 26.7639C41.6904 26.7697 41.7683 26.7603 41.8418 26.7363C41.9153 26.7124 41.9828 26.6744 42.0403 26.6247C42.0978 26.575 42.144 26.5147 42.1761 26.4474C42.2082 26.38 42.2255 26.3072 42.2269 26.2333C42.2269 24.4506 38.6558 24.1986 38.6558 22.1105C38.6558 20.2437 41.0272 18.9878 44.0164 18.9878C46.4239 18.9878 47.7922 20.1025 47.7922 21.0798C47.7922 21.828 46.143 22.9694 45.3927 22.9694Z" fill="#5B1EA8"/>
<path d="M58.6499 27.9281C58.6499 29.3215 59.5848 30.4094 61.3422 30.4094C62.249 30.4094 62.6623 30.1002 62.9231 30.1002C62.97 30.0986 63.0166 30.1062 63.0602 30.1225C63.1038 30.1388 63.1434 30.1635 63.1766 30.195C63.2097 30.2266 63.2356 30.2642 63.2528 30.3057C63.2699 30.3472 63.2779 30.3916 63.2762 30.4361C63.2762 30.9935 61.4586 32.8335 58.2968 32.8335C55.8652 32.8335 53.8831 31.3065 53.8831 29.0428C53.8831 25.7827 56.5754 22.9349 56.5754 21.8278C56.5796 21.7673 56.5701 21.7066 56.5476 21.6499C56.525 21.5932 56.4899 21.5417 56.4446 21.499C56.3994 21.4563 56.345 21.4234 56.2852 21.4024C56.2254 21.3814 56.1615 21.3728 56.098 21.3773C55.5442 21.3773 54.2843 21.7934 53.4337 23.1868C52.583 24.5802 51.4275 27.4509 51.4275 28.3976C51.4275 28.8175 51.3392 29.0657 50.8697 29.0657C49.4935 29.0657 47.5916 28.7336 47.5916 27.7296C47.5916 25.8896 53.2732 14.9678 53.2732 12.8415C53.2732 12.5629 53.534 12.3682 54.0757 12.3682C55.6004 12.3682 56.9486 13.6203 56.9486 14.4029C56.9486 15.6015 54.6615 19.8618 54.6615 20.2245C54.6594 20.2359 54.6602 20.2477 54.6639 20.2589C54.6676 20.27 54.674 20.2801 54.6827 20.2883C54.6913 20.2965 54.702 20.3027 54.7136 20.3062C54.7253 20.3097 54.7377 20.3105 54.7498 20.3085C54.8661 20.3085 56.8884 18.9991 58.7622 18.9991C60.2268 18.9991 61.0172 19.7244 61.0172 20.8391C61.0493 22.744 58.6499 25.2253 58.6499 27.9281Z" fill="#5B1EA8"/>
<path d="M71.1047 25.2518C71.2314 25.2613 71.3498 25.3155 71.4366 25.4038C71.5235 25.4921 71.5725 25.6081 71.5741 25.729C71.5741 26.2291 69.905 29.1265 65.3067 29.1265C63.3005 29.1265 61.6433 27.9813 61.6433 25.9504C61.6433 22.4956 65.5996 19.0103 69.612 19.0103C71.867 19.0103 72.7458 20.1249 72.7458 21.2129C72.7458 23.3583 69.0543 25.1411 66.4181 25.6144C66.5947 26.2023 67.0641 26.5344 67.9148 26.5344C69.905 26.5344 70.6673 25.2518 71.1047 25.2518ZM66.4502 24.0264C68.3521 23.5263 69.933 22.2169 69.933 21.3542C69.9407 21.2902 69.9331 21.2255 69.9109 21.1647C69.8886 21.104 69.8522 21.0488 69.8043 21.0033C69.7565 20.9578 69.6985 20.9231 69.6346 20.9019C69.5708 20.8807 69.5027 20.8735 69.4355 20.8808C68.5006 20.877 66.9157 22.3276 66.4502 24.0264Z" fill="#5B1EA8"/>
<path d="M81.1678 22.9694C80.8468 22.9694 80.7866 22.8014 80.7024 22.412C80.5539 21.828 80.2008 21.1561 79.5307 21.1561C79.4437 21.1491 79.3562 21.1596 79.2738 21.1869C79.1913 21.2143 79.1159 21.2578 79.0523 21.3147C78.9887 21.3716 78.9384 21.4406 78.9047 21.5172C78.871 21.5938 78.8546 21.6762 78.8566 21.7593C78.8566 23.1794 82.2512 23.626 82.2512 25.7447C82.2512 27.6534 80.5539 29.0315 77.1273 29.0315C74.138 29.0315 72.5571 27.5541 72.5571 26.8021C72.5571 26.0501 74.2864 24.7674 75.2815 24.7674C75.6828 24.7674 75.8072 24.9354 75.8673 25.1492C76.072 26.0959 76.7461 26.7639 77.3921 26.7639C77.4694 26.7691 77.547 26.7593 77.6203 26.7352C77.6935 26.711 77.7608 26.673 77.8182 26.6234C77.8756 26.5738 77.9218 26.5137 77.9541 26.4467C77.9863 26.3796 78.004 26.307 78.006 26.2333C78.006 24.4506 74.4309 24.1986 74.4309 22.1105C74.4309 20.2437 76.8063 18.9878 79.7915 18.9878C82.199 18.9878 83.5713 20.1025 83.5713 21.0798C83.5713 21.828 81.9021 22.9694 81.1678 22.9694Z" fill="#5B1EA8"/>
<path d="M26.5786 5.79065H26.3058C26.5317 5.66248 26.7281 5.49241 26.8836 5.29056C27.7462 4.12242 27.3169 3.00009 25.8764 2.03046C24.9543 1.39669 23.8442 1.05844 22.7066 1.06464C22.155 1.0806 21.6212 1.25346 21.1739 1.56091C20.0624 -0.156939 17.9077 -0.489057 15.6487 0.724891C15.0067 1.07228 12.9965 2.35876 14.148 4.27894C14.6015 5.04243 15.4842 5.55396 16.7642 5.80592C13.9956 5.80592 12.7999 5.76011 9.91089 5.54251C8.70716 5.4738 8.30591 6.13803 8.30591 6.13803C7.81238 7.59248 7.99695 8.81025 9.38125 9.3256C9.38125 9.3256 25.4752 6.4816 32.0957 11.0282C32.4368 11.261 32.9384 11.4443 33.0427 10.8335C33.9736 5.344 26.5786 5.79065 26.5786 5.79065ZM23.0356 3.19478C23.3083 2.83587 23.7193 2.59425 24.1787 2.52272C24.638 2.45119 25.1085 2.55556 25.4872 2.81304C25.5873 2.87519 25.6725 2.9567 25.7372 3.05226C25.802 3.14782 25.8448 3.25528 25.863 3.36765C25.8812 3.48002 25.8742 3.59478 25.8427 3.70443C25.8111 3.81409 25.7556 3.91619 25.6798 4.00408C25.2104 4.64159 23.8983 4.88209 22.8109 4.97371C22.827 4.96226 22.5662 3.81702 23.0356 3.19478ZM15.7169 3.17188C15.6197 3.03228 15.5559 2.8741 15.5299 2.7085C15.504 2.54289 15.5165 2.37388 15.5666 2.21337C15.6167 2.05286 15.7032 1.90475 15.82 1.77949C15.9368 1.65423 16.081 1.55486 16.2425 1.48838C16.6188 1.28251 17.0622 1.21771 17.486 1.30669C17.9098 1.39566 18.2834 1.632 18.5337 1.96938C18.9827 2.78365 19.0834 3.73161 18.8145 4.61487C17.8957 4.36292 16.2185 4.01171 15.7169 3.17188Z" fill="#5B1EA8"/>
<path d="M37.5204 14.8877L37.5766 16.0329L38.5797 16.617C38.6289 16.6467 38.6686 16.6888 38.6943 16.7387C38.7199 16.7885 38.7307 16.8441 38.7253 16.8993C38.7199 16.9546 38.6986 17.0074 38.6637 17.0518C38.6288 17.0963 38.5817 17.1308 38.5276 17.1514L37.4281 17.5599L37.1473 18.6631C37.1345 18.7174 37.1061 18.7672 37.0652 18.8068C37.0242 18.8465 36.9724 18.8745 36.9156 18.8876C36.8588 18.9007 36.7993 18.8984 36.7438 18.881C36.6883 18.8636 36.639 18.8318 36.6016 18.7891L35.8633 17.9149L34.6876 18.0103C34.6297 18.0141 34.5718 18.0026 34.5205 17.9769C34.4691 17.9512 34.4262 17.9124 34.3966 17.8649C34.3671 17.8174 34.352 17.763 34.3531 17.7077C34.3542 17.6525 34.3714 17.5987 34.4028 17.5522L35.0447 16.5979L34.5994 15.5519C34.578 15.5 34.572 15.4435 34.582 15.3885C34.5919 15.3336 34.6175 15.2823 34.656 15.2402C34.6944 15.1981 34.7443 15.1668 34.8001 15.1498C34.8559 15.1327 34.9155 15.1305 34.9725 15.1434L36.108 15.4297L37.0028 14.6662C37.0479 14.6291 37.1032 14.6051 37.1622 14.5969C37.2212 14.5887 37.2814 14.5967 37.3358 14.6199C37.3902 14.6432 37.4365 14.6808 37.4692 14.7282C37.5019 14.7756 37.5197 14.8309 37.5204 14.8877Z" fill="#5B1EA8"/>
</svg>
