<svg width="41" height="41" viewBox="0 0 41 41" fill="none" xmlns="http://www.w3.org/2000/svg">
<circle cx="20.5" cy="20.5" r="20.25" fill="#FEE500" stroke="#EBEBEB" stroke-width="0.5"/>
<path d="M21 10C27.0751 10 32 14.1768 32 19.3306C32 24.4832 27.0751 28.66 21 28.66C20.3951 28.6604 19.7908 28.6185 19.1908 28.5346L14.5729 31.8211C14.048 32.1232 13.8626 32.0902 14.0784 31.3503L15.0129 27.1576C11.9957 25.4932 10 22.6091 10 19.3306C10 14.178 14.9249 10 21 10ZM27.1883 19.1881L28.7283 17.5648C28.8171 17.4644 28.8667 17.3303 28.8666 17.1909C28.8664 17.0515 28.8165 16.9176 28.7275 16.8174C28.6384 16.7172 28.517 16.6586 28.389 16.6538C28.261 16.6491 28.1362 16.6986 28.041 16.7919L26.0212 18.9191V17.1612C26.0212 17.0185 25.9691 16.8817 25.8764 16.7808C25.7837 16.6799 25.6579 16.6232 25.5268 16.6232C25.3956 16.6232 25.2698 16.6799 25.1771 16.7808C25.0844 16.8817 25.0323 17.0185 25.0323 17.1612V20.0761C25.0138 20.1593 25.0138 20.246 25.0323 20.3292V21.9696C25.0323 22.1123 25.0844 22.2492 25.1771 22.3501C25.2698 22.451 25.3956 22.5077 25.5268 22.5077C25.6579 22.5077 25.7837 22.451 25.8764 22.3501C25.9691 22.2492 26.0212 22.1123 26.0212 21.9696V20.4158L26.4686 19.945L27.9646 22.2626C28.0019 22.3204 28.0494 22.3697 28.1042 22.4076C28.1591 22.4455 28.2203 22.4713 28.2843 22.4835C28.3483 22.4956 28.4139 22.494 28.4773 22.4786C28.5407 22.4631 28.6007 22.4343 28.6539 22.3937C28.7071 22.353 28.7524 22.3014 28.7872 22.2417C28.822 22.182 28.8457 22.1154 28.8569 22.0458C28.8681 21.9761 28.8666 21.9047 28.8524 21.8357C28.8382 21.7667 28.8117 21.7014 28.7744 21.6436L27.1883 19.1869V19.1881ZM24.0894 21.3814H22.5599V17.1783C22.5541 17.0401 22.4995 16.9096 22.4075 16.814C22.3155 16.7184 22.1932 16.665 22.066 16.665C21.9387 16.665 21.8164 16.7184 21.7244 16.814C21.6325 16.9096 21.5779 17.0401 21.572 17.1783V21.9194C21.572 22.2158 21.792 22.4575 22.0654 22.4575H24.0894C24.2206 22.4575 24.3463 22.4008 24.4391 22.2999C24.5318 22.199 24.5839 22.0621 24.5839 21.9194C24.5839 21.7767 24.5318 21.6399 24.4391 21.539C24.3463 21.4381 24.2206 21.3814 24.0894 21.3814ZM17.9535 20.1365L18.6827 18.1906L19.351 20.1365H17.9535ZM20.5967 20.6928L20.5988 20.6746C20.5985 20.539 20.551 20.4087 20.4657 20.3098L19.3699 17.1179C19.324 16.9658 19.2365 16.8326 19.1191 16.736C19.0017 16.6395 18.8601 16.5842 18.713 16.5776C18.565 16.5769 18.4202 16.6252 18.298 16.7163C18.1758 16.8073 18.0819 16.9367 18.029 17.0871L16.2889 21.7325C16.2643 21.7979 16.2518 21.8679 16.2521 21.9386C16.2525 22.0093 16.2656 22.0792 16.2907 22.1443C16.3159 22.2095 16.3526 22.2686 16.3987 22.3183C16.4449 22.3681 16.4995 22.4074 16.5597 22.4341C16.6198 22.4608 16.6842 22.4744 16.7491 22.4741C16.814 22.4737 16.8783 22.4595 16.9382 22.4321C16.998 22.4047 17.0524 22.3648 17.0981 22.3146C17.1438 22.2644 17.1799 22.2049 17.2045 22.1394L17.5502 21.2127H19.7188L20.032 22.1246C20.0533 22.1928 20.0869 22.2556 20.131 22.3094C20.175 22.3631 20.2285 22.4067 20.2882 22.4376C20.348 22.4684 20.4129 22.4859 20.479 22.489C20.5451 22.4921 20.6111 22.4807 20.6731 22.4555C20.7351 22.4303 20.7918 22.3919 20.8399 22.3424C20.888 22.293 20.9264 22.2335 20.953 22.1676C20.9796 22.1016 20.9937 22.0306 20.9946 21.9586C20.9955 21.8866 20.9831 21.8151 20.9581 21.7484L20.5967 20.6928ZM17.1165 17.184C17.1165 17.0415 17.0645 16.9048 16.972 16.804C16.8795 16.7031 16.754 16.6463 16.623 16.646H13.2235C13.0924 16.646 12.9666 16.7027 12.8739 16.8036C12.7811 16.9045 12.729 17.0413 12.729 17.184C12.729 17.3267 12.7811 17.4636 12.8739 17.5645C12.9666 17.6654 13.0924 17.7221 13.2235 17.7221H14.4388V21.981C14.4388 22.1237 14.4909 22.2606 14.5836 22.3615C14.6763 22.4624 14.8021 22.5191 14.9332 22.5191C15.0644 22.5191 15.1902 22.4624 15.2829 22.3615C15.3756 22.2606 15.4277 22.1237 15.4277 21.981V17.7221H16.622C16.8954 17.7221 17.1165 17.4804 17.1165 17.184Z" fill="black"/>
</svg>
